# xmcd CD database file
#
# Track frame offsets:
#	150
#	17398
#	46840
#	58966
#	76772
#	102644
#	124055
#	150815
#	164087
#	180372
#	203602
#
# Disc length: 3169 seconds
#
# Revision: 2
# Processed by: cddbd v1.4b41PL1 Copyright (c) Steve Scherf et al.
# Submitted via: Feurio! 1.50.2ß - http://www.feurio.com
#
DISCID=7e0c5f0b
DTITLE=Greg Serrato - Holy Smokes
DYEAR=1900
DGENRE=
TTITLE0=Cadillac Blues
TTITLE1=That Ain't Right
TTITLE2=Holy Smokes
TTITLE3=Living On A High Wire
TTITLE4=Crying Like A Fool
TTITLE5=Going Insane
TTITLE6=Val
TTITLE7=Kids Have The Blues Too
TTITLE8=Jump Baby Jump
TTITLE9=Warrior Of Peace
TTITLE10=Cheatin' Hand
EXTD=
EXTT0=
EXTT1=
EXTT2=
EXTT3=
EXTT4=
EXTT5=
EXTT6=
EXTT7=
EXTT8=
EXTT9=
EXTT10=
PLAYORDER=
